<?xml version="1.0" standalone="no"?>
<!DOCTYPE svg PUBLIC "-//W3C//DTD SVG 20010904//EN"
 "http://www.w3.org/TR/2001/REC-SVG-20010904/DTD/svg10.dtd">
<svg version="1.0" xmlns="http://www.w3.org/2000/svg"
 width="640.000000pt" height="640.000000pt" viewBox="0 0 640.000000 640.000000"
 preserveAspectRatio="xMidYMid meet">
<metadata>
Created by potrace 1.14, written by Peter Selinger 2001-2017
</metadata>
<g transform="translate(0.000000,640.000000) scale(0.100000,-0.100000)"
fill="#000000" stroke="none">
<path d="M2208 6029 c-11 -6 -18 -22 -18 -42 1 -18 -2 -150 -6 -294 -4 -144
-4 -273 0 -287 5 -21 12 -26 38 -26 17 0 45 4 62 9 17 6 57 15 89 21 94 19
147 78 147 165 0 53 -17 91 -67 146 l-36 40 23 46 c12 25 26 60 30 79 15 64
-45 118 -158 143 -64 13 -82 13 -104 0z m145 -101 c33 -25 -11 -119 -48 -104
-22 8 -21 92 3 105 22 13 25 13 45 -1z m19 -265 c39 -38 47 -73 32 -130 -8
-31 -80 -66 -107 -52 -17 10 -19 20 -15 102 2 51 7 98 11 105 14 21 40 13 79
-25z"/>
<path d="M2710 5998 c-33 -22 -35 -28 -41 -93 -4 -39 -6 -147 -5 -241 1 -190
5 -204 62 -204 44 0 54 21 54 113 0 82 5 91 60 101 52 9 79 32 106 90 60 128
-3 235 -148 252 -45 5 -58 2 -88 -18z m136 -161 c-8 -54 -27 -83 -50 -74 -25
10 -24 144 2 150 9 2 25 -4 36 -14 15 -14 17 -25 12 -62z"/>
<path d="M3216 5951 c-10 -11 -17 -28 -15 -38 1 -10 -2 -26 -6 -37 -12 -28 2
-363 17 -394 10 -20 22 -28 46 -30 27 -3 34 1 42 23 6 14 10 55 10 91 l0 64
88 0 c101 0 132 13 113 47 -12 23 -30 28 -126 39 -33 3 -66 11 -72 16 -8 6
-13 34 -13 68 0 68 2 70 101 70 83 0 109 11 109 46 0 33 -22 40 -161 48 -106
6 -117 5 -133 -13z"/>
<path d="M3814 5928 c-54 -14 -62 -33 -70 -158 -8 -148 9 -295 39 -327 11 -13
30 -23 43 -23 36 0 49 27 49 104 l0 71 91 6 c104 8 134 19 134 53 0 31 -16 36
-105 36 -41 0 -85 4 -100 10 -24 9 -25 12 -19 62 4 29 11 58 15 64 5 6 53 14
108 17 54 3 108 10 120 16 27 15 28 57 1 71 -22 12 -259 10 -306 -2z"/>
<path d="M2975 4984 c-199 -21 -446 -104 -580 -195 -89 -59 -345 -316 -438
-439 -23 -30 -47 -60 -53 -67 -21 -22 -112 -208 -119 -243 -21 -104 -120 -424
-168 -545 -46 -117 -119 -351 -141 -457 -5 -21 -12 -28 -29 -28 -20 0 -275
153 -437 263 -30 20 -65 37 -77 37 -34 0 -73 -21 -73 -39 1 -9 34 -38 75 -66
41 -27 122 -81 179 -120 57 -38 150 -99 206 -134 55 -35 106 -73 111 -83 8
-14 7 -45 0 -101 -15 -109 -13 -295 4 -517 19 -242 28 -288 80 -395 23 -49 60
-144 80 -210 21 -66 52 -151 70 -190 97 -210 96 -207 194 -305 116 -116 169
-144 421 -223 280 -89 255 -77 254 -117 -1 -19 -9 -75 -18 -125 -47 -242 -55
-309 -40 -326 21 -23 60 -29 84 -12 15 10 20 25 20 56 0 23 9 105 21 182 11
77 23 154 25 171 2 17 10 39 18 49 14 20 8 21 231 -45 185 -55 253 -65 430
-64 165 0 173 1 265 33 52 17 137 52 189 76 51 25 100 45 107 45 13 0 89 -148
164 -320 53 -121 63 -132 113 -128 63 5 67 24 25 110 -20 40 -71 145 -113 233
l-77 159 25 21 c13 11 54 43 89 70 67 51 157 161 216 263 105 181 236 471 267
589 22 82 74 472 88 661 13 161 16 175 38 196 36 35 269 207 323 238 25 15 52
39 58 53 10 22 9 29 -9 46 -16 16 -28 20 -51 14 -27 -5 -203 -122 -275 -182
-16 -13 -37 -23 -47 -23 -17 0 -18 17 -23 258 -4 228 -9 284 -41 497 -19 132
-41 258 -47 280 -12 43 -51 126 -92 197 -14 23 -45 88 -69 143 -74 169 -141
252 -328 399 -145 114 -174 132 -342 208 -263 120 -358 145 -578 151 -91 3
-183 3 -205 1z m-280 -214 c22 -11 45 -20 50 -20 6 0 44 -32 85 -70 41 -39 87
-78 103 -88 15 -9 30 -25 33 -35 3 -11 21 -33 38 -51 32 -30 76 -136 76 -181
0 -12 6 -27 13 -34 10 -11 10 -14 0 -18 -7 -3 -13 -8 -13 -12 0 -4 6 -8 13 -8
39 -3 78 -12 89 -20 7 -6 27 -13 43 -17 17 -4 37 -13 45 -21 26 -22 57 -27 64
-10 4 11 13 14 30 9 18 -4 25 -1 28 12 3 15 11 18 45 16 31 -3 44 1 53 15 7
11 13 14 16 6 4 -8 15 -8 40 -1 19 5 41 7 47 5 7 -2 21 -1 32 3 11 4 38 5 60
1 l39 -6 -23 -22 c-13 -12 -29 -19 -35 -16 -6 4 -5 -1 3 -10 18 -22 40 -21 71
3 17 12 28 15 36 9 8 -7 14 -6 19 1 10 15 28 12 22 -4 -6 -15 26 -32 50 -28 6
2 14 -2 18 -8 9 -15 23 -12 46 11 21 21 23 21 48 6 14 -9 25 -22 23 -29 -15
-57 -14 -68 4 -68 11 0 30 12 43 25 28 30 45 31 78 6 24 -19 53 -19 53 1 0 5
-5 19 -11 31 -12 21 -12 21 16 3 18 -12 46 -18 79 -18 l51 1 39 -82 c22 -45
49 -102 61 -127 30 -62 37 -107 22 -131 -9 -15 -9 -21 0 -27 8 -5 9 -13 3 -22
-6 -10 -4 -20 7 -32 8 -9 13 -24 10 -32 -4 -9 0 -34 8 -57 8 -23 19 -67 25
-98 5 -31 15 -81 21 -111 8 -39 8 -55 0 -58 -14 -5 -14 -35 -1 -48 6 -6 11
-53 11 -105 1 -52 5 -150 11 -219 6 -88 5 -162 -3 -250 -7 -69 -11 -152 -10
-185 1 -52 -7 -169 -24 -325 -3 -25 -9 -63 -15 -85 -5 -22 -12 -61 -15 -87 -6
-44 -25 -78 -25 -44 0 9 -8 14 -20 13 -35 -2 -17 -36 22 -41 16 -2 19 -16 7
-37 -7 -13 -14 -42 -16 -64 -4 -50 -34 -137 -50 -148 -7 -4 -13 -20 -13 -35 0
-32 -38 -115 -79 -176 -17 -24 -53 -89 -82 -145 -28 -55 -55 -101 -60 -101 -5
0 -9 -7 -9 -16 0 -14 -49 -91 -77 -122 -7 -7 -16 -19 -20 -25 -40 -65 -455
-280 -591 -307 -117 -23 -340 -5 -487 39 -157 46 -323 90 -365 96 -93 13 -496
151 -531 181 -8 8 -20 14 -25 14 -14 0 -116 109 -151 160 -65 95 -172 339
-187 424 -4 22 -28 75 -53 120 -64 113 -82 183 -90 361 -10 198 -9 526 1 595
11 78 55 284 76 355 10 33 23 80 30 105 26 92 71 223 85 243 7 12 35 103 60
202 26 99 55 194 65 210 9 17 20 44 24 60 15 64 70 183 122 260 29 44 110 141
180 215 70 74 142 152 161 172 37 40 160 119 232 148 56 23 48 23 96 0z"/>
<path d="M2221 4199 c-12 -13 -21 -28 -21 -35 0 -48 49 -61 76 -20 36 56 -11
102 -55 55z"/>
<path d="M3493 4213 c-21 -8 -14 -20 14 -26 35 -7 47 1 32 19 -12 14 -24 16
-46 7z"/>
<path d="M3597 4204 c-15 -15 -6 -32 13 -27 12 3 19 10 17 16 -4 14 -21 19
-30 11z"/>
<path d="M2223 3551 c-51 -19 -68 -31 -141 -101 -33 -32 -58 -39 -72 -21 -3 3
-23 19 -45 35 -22 16 -55 44 -73 63 -39 41 -85 44 -90 5 -3 -19 20 -47 112
-137 l116 -114 0 -83 c0 -54 5 -91 13 -103 8 -11 33 -56 57 -100 60 -113 69
-123 136 -161 134 -77 212 -104 302 -104 37 0 54 -4 58 -15 9 -21 32 -18 85
13 137 81 174 119 229 236 38 82 55 128 65 179 10 51 93 71 174 42 68 -24 86
-49 104 -150 21 -113 74 -223 129 -267 61 -48 169 -84 272 -92 116 -8 136 -14
136 -37 0 -10 4 -19 9 -19 14 0 21 28 9 32 -6 2 13 14 43 26 30 13 61 27 69
32 8 6 24 14 36 19 11 5 39 28 62 50 23 23 45 41 50 41 5 0 24 14 42 30 18 17
37 30 42 30 4 0 8 8 8 18 0 10 9 37 20 60 12 24 18 47 15 52 -3 4 2 16 11 25
20 20 36 83 21 88 -6 2 -6 15 2 40 12 36 69 87 98 87 7 0 13 9 13 20 0 11 5
20 10 20 6 0 10 6 10 13 0 8 11 20 25 27 42 22 29 90 -17 90 -9 0 -48 -30 -86
-67 -123 -121 -103 -116 -171 -42 -45 49 -79 75 -143 107 -78 39 -93 43 -228
58 -171 19 -270 16 -323 -11 -61 -29 -133 -105 -141 -147 -10 -53 -25 -61 -81
-47 -30 8 -81 10 -141 6 -91 -6 -94 -6 -94 15 0 27 -61 136 -92 164 -40 36
-118 77 -177 91 -33 8 -130 16 -236 19 -160 3 -186 2 -232 -15z m424 -75 c70
-18 161 -72 187 -111 10 -15 21 -51 25 -79 4 -28 13 -61 19 -73 17 -31 15 -71
-9 -147 -26 -81 -88 -178 -133 -205 -18 -12 -49 -21 -67 -21 -19 0 -48 -4 -64
-8 -17 -5 -71 -5 -121 -2 -76 6 -101 13 -153 40 -93 50 -144 100 -185 182 -40
81 -53 159 -42 252 6 47 14 62 49 99 89 91 112 99 292 93 77 -3 168 -12 202
-20z m1078 -90 c155 -19 220 -43 293 -111 67 -62 87 -112 80 -208 -5 -77 -38
-147 -91 -190 -21 -18 -53 -45 -70 -61 -59 -53 -101 -66 -220 -66 -90 0 -117
4 -166 24 -113 46 -157 88 -197 191 -28 73 -25 250 6 322 48 113 107 129 365
99z"/>
<path d="M2428 3250 c-26 -16 -48 -69 -48 -116 0 -34 5 -47 26 -63 46 -36 138
-20 164 28 23 43 8 120 -29 148 -19 15 -89 16 -113 3z"/>
<path d="M3576 3169 c-59 -70 -11 -168 82 -169 35 0 49 6 73 29 40 40 39 84
-2 134 -27 33 -35 37 -79 37 -42 0 -52 -4 -74 -31z"/>
<path d="M3175 2722 c-6 -4 -23 -24 -38 -44 -16 -22 -37 -38 -48 -38 -26 0
-69 23 -93 49 -22 24 -35 26 -61 8 -16 -12 -17 -18 -6 -48 42 -120 216 -149
279 -47 35 56 38 92 11 112 -26 18 -30 19 -44 8z"/>
<path d="M4343 2610 c-4 -5 -19 -10 -33 -12 -21 -2 -26 -9 -28 -40 -3 -30 0
-38 14 -38 28 0 148 44 159 58 6 7 17 12 25 10 8 -2 15 4 15 12 0 11 -16 15
-72 16 -39 1 -75 -2 -80 -6z"/>
<path d="M4195 2166 c-24 -36 -11 -96 20 -96 26 0 36 11 54 62 15 46 9 58 -29
58 -20 0 -35 -8 -45 -24z"/>
<path d="M4265 1955 c17 -8 36 -14 43 -15 6 0 12 -5 12 -11 0 -8 5 -8 15 1 15
13 11 35 -6 25 -5 -4 -9 -1 -9 4 0 6 -19 11 -42 10 l-43 -1 30 -13z"/>
<path d="M3470 1844 c-39 -33 -38 -68 2 -72 35 -4 68 29 68 68 0 39 -26 40
-70 4z"/>
<path d="M4316 1721 c-4 -7 -5 -15 -2 -18 9 -9 19 4 14 18 -4 11 -6 11 -12 0z"/>
<path d="M2045 1650 c-3 -5 -1 -19 5 -30 14 -26 7 -36 -30 -43 -35 -8 -37 -16
-10 -45 16 -17 27 -20 57 -15 60 9 81 27 81 69 0 22 -7 43 -19 55 -20 20 -74
26 -84 9z"/>
</g>
</svg>
